<mxfile host="app.diagrams.net" modified="2023-05-08T18:12:14.317Z" agent="Mozilla/5.0 (Windows NT 10.0; Win64; x64) AppleWebKit/537.36 (KHTML, like Gecko) Chrome/113.0.0.0 Safari/537.36" etag="YSPtOhV1Y5Um73VrvCZp" version="21.2.9" type="github">
  <diagram name="Page-1" id="Ute1aCPzgfMwWKsMdvKK">
    <mxGraphModel dx="1034" dy="430" grid="1" gridSize="10" guides="1" tooltips="1" connect="1" arrows="1" fold="1" page="1" pageScale="1" pageWidth="1600" pageHeight="1200" math="0" shadow="0">
      <root>
        <mxCell id="0" />
        <mxCell id="1" parent="0" />
        <mxCell id="agDRnTZanuVhSQsMpSvM-18" value="" style="edgeStyle=orthogonalEdgeStyle;rounded=0;orthogonalLoop=1;jettySize=auto;html=1;" parent="1" source="agDRnTZanuVhSQsMpSvM-1" target="agDRnTZanuVhSQsMpSvM-6" edge="1">
          <mxGeometry relative="1" as="geometry" />
        </mxCell>
        <mxCell id="agDRnTZanuVhSQsMpSvM-1" value="Start" style="rounded=1;whiteSpace=wrap;html=1;" parent="1" vertex="1">
          <mxGeometry x="120" y="585" width="60" height="30" as="geometry" />
        </mxCell>
        <mxCell id="agDRnTZanuVhSQsMpSvM-19" value="" style="edgeStyle=orthogonalEdgeStyle;rounded=0;orthogonalLoop=1;jettySize=auto;html=1;" parent="1" source="agDRnTZanuVhSQsMpSvM-6" target="agDRnTZanuVhSQsMpSvM-7" edge="1">
          <mxGeometry relative="1" as="geometry" />
        </mxCell>
        <mxCell id="agDRnTZanuVhSQsMpSvM-6" value="" style="outlineConnect=0;dashed=0;verticalLabelPosition=bottom;verticalAlign=top;align=center;html=1;shape=mxgraph.aws3.internet_3;fillColor=#D2D3D3;gradientColor=none;" parent="1" vertex="1">
          <mxGeometry x="200" y="573" width="79.5" height="54" as="geometry" />
        </mxCell>
        <mxCell id="agDRnTZanuVhSQsMpSvM-23" value="" style="edgeStyle=orthogonalEdgeStyle;rounded=0;orthogonalLoop=1;jettySize=auto;html=1;strokeColor=#00FF00;" parent="1" source="agDRnTZanuVhSQsMpSvM-7" target="agDRnTZanuVhSQsMpSvM-8" edge="1">
          <mxGeometry relative="1" as="geometry">
            <Array as="points">
              <mxPoint x="350" y="660" />
              <mxPoint x="350" y="660" />
            </Array>
          </mxGeometry>
        </mxCell>
        <mxCell id="agDRnTZanuVhSQsMpSvM-7" value="Download &lt;br&gt;XML/Zip files" style="rhombus;whiteSpace=wrap;html=1;" parent="1" vertex="1">
          <mxGeometry x="300" y="565" width="100" height="70" as="geometry" />
        </mxCell>
        <mxCell id="agDRnTZanuVhSQsMpSvM-25" value="" style="edgeStyle=orthogonalEdgeStyle;rounded=0;orthogonalLoop=1;jettySize=auto;html=1;strokeColor=#00FF00;" parent="1" source="agDRnTZanuVhSQsMpSvM-8" target="agDRnTZanuVhSQsMpSvM-9" edge="1">
          <mxGeometry relative="1" as="geometry">
            <Array as="points">
              <mxPoint x="398" y="800" />
              <mxPoint x="398" y="800" />
            </Array>
          </mxGeometry>
        </mxCell>
        <mxCell id="agDRnTZanuVhSQsMpSvM-37" value="" style="edgeStyle=orthogonalEdgeStyle;rounded=0;orthogonalLoop=1;jettySize=auto;html=1;strokeColor=#FF0000;" parent="1" source="agDRnTZanuVhSQsMpSvM-8" target="agDRnTZanuVhSQsMpSvM-10" edge="1">
          <mxGeometry relative="1" as="geometry" />
        </mxCell>
        <mxCell id="agDRnTZanuVhSQsMpSvM-8" value="Validation" style="rhombus;whiteSpace=wrap;html=1;" parent="1" vertex="1">
          <mxGeometry x="308.75" y="680" width="80" height="50" as="geometry" />
        </mxCell>
        <mxCell id="agDRnTZanuVhSQsMpSvM-27" value="" style="edgeStyle=orthogonalEdgeStyle;rounded=0;orthogonalLoop=1;jettySize=auto;html=1;strokeColor=#00FF00;" parent="1" source="agDRnTZanuVhSQsMpSvM-9" target="agDRnTZanuVhSQsMpSvM-12" edge="1">
          <mxGeometry relative="1" as="geometry">
            <Array as="points">
              <mxPoint x="300" y="795" />
              <mxPoint x="300" y="795" />
            </Array>
          </mxGeometry>
        </mxCell>
        <mxCell id="TiLJunxs_vt4vC1ETGpS-1" style="edgeStyle=orthogonalEdgeStyle;rounded=0;orthogonalLoop=1;jettySize=auto;html=1;entryX=0.419;entryY=1.017;entryDx=0;entryDy=0;entryPerimeter=0;strokeColor=#FF0000;" parent="1" source="agDRnTZanuVhSQsMpSvM-9" target="agDRnTZanuVhSQsMpSvM-34" edge="1">
          <mxGeometry relative="1" as="geometry" />
        </mxCell>
        <mxCell id="agDRnTZanuVhSQsMpSvM-9" value="Convert&lt;br&gt;to csv" style="rhombus;whiteSpace=wrap;html=1;" parent="1" vertex="1">
          <mxGeometry x="298.75" y="769.6" width="101.25" height="50" as="geometry" />
        </mxCell>
        <mxCell id="agDRnTZanuVhSQsMpSvM-10" value="Log on server" style="rounded=1;whiteSpace=wrap;html=1;" parent="1" vertex="1">
          <mxGeometry x="120" y="675" width="105" height="60" as="geometry" />
        </mxCell>
        <mxCell id="agDRnTZanuVhSQsMpSvM-49" style="edgeStyle=orthogonalEdgeStyle;rounded=0;orthogonalLoop=1;jettySize=auto;html=1;entryX=1;entryY=0.5;entryDx=0;entryDy=0;entryPerimeter=0;" parent="1" source="agDRnTZanuVhSQsMpSvM-12" target="agDRnTZanuVhSQsMpSvM-13" edge="1">
          <mxGeometry relative="1" as="geometry" />
        </mxCell>
        <mxCell id="agDRnTZanuVhSQsMpSvM-12" value="Upload to &lt;br&gt;AWS S3" style="sketch=0;outlineConnect=0;fontColor=#232F3E;gradientColor=none;fillColor=#3F8624;strokeColor=none;dashed=0;verticalLabelPosition=bottom;verticalAlign=top;align=center;html=1;fontSize=12;fontStyle=0;aspect=fixed;pointerEvents=1;shape=mxgraph.aws4.bucket;" parent="1" vertex="1">
          <mxGeometry x="249.5" y="779" width="30" height="31.2" as="geometry" />
        </mxCell>
        <mxCell id="agDRnTZanuVhSQsMpSvM-32" value="" style="edgeStyle=orthogonalEdgeStyle;rounded=0;orthogonalLoop=1;jettySize=auto;html=1;" parent="1" source="agDRnTZanuVhSQsMpSvM-13" target="agDRnTZanuVhSQsMpSvM-14" edge="1">
          <mxGeometry relative="1" as="geometry" />
        </mxCell>
        <mxCell id="agDRnTZanuVhSQsMpSvM-13" value="" style="shape=cylinder3;whiteSpace=wrap;html=1;boundedLbl=1;backgroundOutline=1;size=15;" parent="1" vertex="1">
          <mxGeometry x="200" y="770" width="30" height="51" as="geometry" />
        </mxCell>
        <mxCell id="agDRnTZanuVhSQsMpSvM-14" value="End" style="rounded=1;whiteSpace=wrap;html=1;" parent="1" vertex="1">
          <mxGeometry x="120" y="779" width="60" height="32" as="geometry" />
        </mxCell>
        <mxCell id="agDRnTZanuVhSQsMpSvM-34" value="Log to&lt;br&gt;&amp;nbsp;DB table" style="whiteSpace=wrap;html=1;" parent="1" vertex="1">
          <mxGeometry x="410" y="700" width="70" height="40" as="geometry" />
        </mxCell>
        <mxCell id="agDRnTZanuVhSQsMpSvM-53" value="PostgreSQL" style="text;strokeColor=none;align=center;fillColor=none;html=1;verticalAlign=middle;whiteSpace=wrap;rounded=0;" parent="1" vertex="1">
          <mxGeometry x="184.75" y="749" width="60" height="30" as="geometry" />
        </mxCell>
        <mxCell id="EW4sewYBrOMynJQrCvWK-1" value="FHWA Website" style="text;strokeColor=none;align=center;fillColor=none;html=1;verticalAlign=middle;whiteSpace=wrap;rounded=0;" parent="1" vertex="1">
          <mxGeometry x="184.75" y="630" width="110" height="30" as="geometry" />
        </mxCell>
        <mxCell id="dtM2q-PL5JUVQf-U7nlx-1" value="" style="endArrow=classic;html=1;rounded=0;exitX=1;exitY=0.5;exitDx=0;exitDy=0;entryX=0.429;entryY=0;entryDx=0;entryDy=0;entryPerimeter=0;strokeColor=#FF0000;" edge="1" parent="1" source="agDRnTZanuVhSQsMpSvM-7" target="agDRnTZanuVhSQsMpSvM-34">
          <mxGeometry width="50" height="50" relative="1" as="geometry">
            <mxPoint x="500" y="640" as="sourcePoint" />
            <mxPoint x="550" y="590" as="targetPoint" />
            <Array as="points">
              <mxPoint x="440" y="600" />
            </Array>
          </mxGeometry>
        </mxCell>
      </root>
    </mxGraphModel>
  </diagram>
</mxfile>
